<?xml version="1.0" encoding="UTF-8"?>
<svg xmlns="http://www.w3.org/2000/svg" xmlns:xlink="http://www.w3.org/1999/xlink" width="485.1pt" height="187.3pt" viewBox="0 0 485.1 187.3" version="1.1"><link xmlns="" type="text/css" rel="stylesheet" id="dark-mode-custom-link"/><link xmlns="" type="text/css" rel="stylesheet" id="dark-mode-general-link"/><style xmlns="" lang="en" type="text/css" id="dark-mode-custom-style"/><style xmlns="" lang="en" type="text/css" id="dark-mode-native-style"/><style xmlns="" lang="en" type="text/css" id="dark-mode-native-sheet"/>
<defs>
<clipPath id="clip1">
  <path d="M 410 36 L 485.101563 36 L 485.101563 135 L 410 135 Z M 410 36 "/>
</clipPath>
<clipPath id="clip2">
  <path d="M 138 167 L 153 167 L 153 187.300781 L 138 187.300781 Z M 138 167 "/>
</clipPath>
<clipPath id="clip3">
  <path d="M 161 167 L 178 167 L 178 187.300781 L 161 187.300781 Z M 161 167 "/>
</clipPath>
<clipPath id="clip4">
  <path d="M 231 167 L 246 167 L 246 187.300781 L 231 187.300781 Z M 231 167 "/>
</clipPath>
<clipPath id="clip5">
  <path d="M 353 167 L 368 167 L 368 187.300781 L 353 187.300781 Z M 353 167 "/>
</clipPath>
<clipPath id="clip6">
  <path d="M 415 167 L 433 167 L 433 187.300781 L 415 187.300781 Z M 415 167 "/>
</clipPath>
<clipPath id="clip7">
  <path d="M 464 167 L 479 167 L 479 187.300781 L 464 187.300781 Z M 464 167 "/>
</clipPath>
</defs>
<g id="surface1">
<path style=" stroke:none;fill-rule:evenodd;fill:rgb(10.594177%,9.812927%,9.423828%);fill-opacity:1;" d="M 19.773438 118.300781 L 97.679688 118.300781 L 97.679688 41.035156 L 19.773438 41.035156 Z M 19.773438 118.300781 "/>
<path style=" stroke:none;fill-rule:evenodd;fill:rgb(89.0625%,0%,8.616638%);fill-opacity:1;" d="M 0.132813 65.753906 C 3.011719 61.597656 5.289063 56.898438 11.429688 53.425781 C 13.273438 53.011719 15.210938 52.921875 16.714844 53.875 L 54.628906 81.847656 C 55.820313 82.171875 57.011719 82.085938 58.203125 81.550781 L 123.433594 0.332031 C 125.746094 -0.09375 126.332031 1.257813 125.214844 4.085938 C 103.871094 36.222656 82.9375 68.738281 58.757813 98.207031 C 57.34375 98.917969 55.871094 98.613281 54.117188 97.953125 C 38.265625 91.046875 20.671875 80.8125 2.921875 70.289063 C 0.8125 68.59375 0.0117188 67.105469 0.132813 65.753906 Z M 0.132813 65.753906 "/>
<path style=" stroke:none;fill-rule:evenodd;fill:rgb(100%,92.576599%,0%);fill-opacity:1;" d="M 55.230469 49.015625 C 60.980469 49.015625 65.640625 53.675781 65.640625 59.425781 C 65.640625 65.175781 60.980469 69.835938 55.230469 69.835938 C 49.480469 69.835938 44.816406 65.175781 44.816406 59.425781 C 44.816406 53.675781 49.480469 49.015625 55.230469 49.015625 Z M 55.230469 49.015625 "/>
<path style=" stroke:none;fill-rule:evenodd;fill:rgb(100%,92.576599%,0%);fill-opacity:1;" d="M 7.617188 159.230469 C 17.121094 155.574219 27.1875 139.113281 41.671875 108.335938 C 44.8125 102.558594 50.007813 99.855469 57.648438 100.828125 C 91.140625 104.480469 92.554688 115.359375 73.433594 141.050781 C 72.878906 139.402344 72.695313 137.378906 73.386719 134.484375 L 77.988281 123.101563 C 78.964844 112.839844 53.875 102.539063 45.914063 123.449219 C 39.433594 135.984375 31.152344 147.109375 20.65625 156.328125 C 19.132813 158.277344 5.035156 161 7.617188 159.230469 Z M 7.617188 159.230469 "/>
<path style=" stroke:none;fill-rule:evenodd;fill:rgb(10.594177%,9.812927%,9.423828%);fill-opacity:1;" d="M 186.5625 80.339844 C 215.648438 84.300781 211.195313 128.800781 193.445313 131.652344 C 188.070313 132.515625 186.199219 134.875 175.710938 134.875 L 131.695313 134.875 L 131.695313 132.335938 L 135.171875 132.335938 C 139.050781 132.335938 140.128906 127.921875 140.113281 124.9375 L 139.714844 43.273438 C 139.699219 40.585938 138.683594 40.242188 135.171875 40.242188 L 131.695313 40.242188 L 131.695313 37.707031 L 171.972656 37.707031 C 179.492188 37.707031 177.792969 37.59375 182.109375 39.351563 C 202.042969 47.476563 203.9375 68 186.5625 80.339844 Z M 155.25 79.425781 C 164.089844 81.144531 176.394531 80.546875 181.511719 71.960938 C 183.269531 69.011719 184.164063 65.757813 184.164063 62.234375 C 184.164063 52.710938 179.59375 41.480469 170 41.628906 L 155.25 41.859375 Z M 155.507813 129.214844 C 160.84375 130.460938 166.152344 130.613281 171.324219 131.074219 C 186.277344 132.398438 197.015625 121.957031 194.695313 105.636719 C 192.878906 92.882813 180.660156 86.101563 167.683594 84.371094 C 164.863281 83.996094 162.414063 84.421875 160.398438 84.511719 C 158.378906 84.601563 156.753906 84.769531 155.507813 84.980469 Z M 155.507813 129.214844 "/>
<path style=" stroke:none;fill-rule:evenodd;fill:rgb(10.594177%,9.812927%,9.423828%);fill-opacity:1;" d="M 268.296875 70.570313 L 313.632813 110.757813 L 313.632813 53.632813 C 313.632813 44.890625 315.082031 39.898438 306.339844 39.15625 L 301.527344 39.15625 L 301.527344 36.472656 L 334.617188 36.472656 L 334.617188 39.15625 C 324.355469 39.15625 322.507813 45.519531 322.507813 53.632813 L 322.507813 136.996094 L 318.863281 136.996094 L 280.316406 102.878906 L 280.316406 102.898438 L 234.980469 62.710938 L 234.980469 119.835938 C 234.980469 127.882813 235.984375 134.308594 246.445313 134.308594 L 246.445313 136.996094 L 214.351563 136.996094 L 214.351563 134.308594 C 226.46875 133.53125 226.105469 131.835938 226.105469 119.835938 L 226.105469 36.472656 L 229.75 36.472656 L 268.296875 70.585938 Z M 268.296875 70.570313 "/>
<path style=" stroke:none;fill-rule:evenodd;fill:rgb(10.594177%,9.812927%,9.423828%);fill-opacity:1;" d="M 397.972656 35.507813 L 397.972656 54.472656 L 395.4375 54.472656 C 393.246094 50.902344 393.59375 49.5625 390.597656 46.859375 C 386.839844 43.457031 383.574219 42.742188 380.855469 41.332031 C 371.722656 36.605469 365.65625 40.289063 359.722656 45.53125 C 356.523438 48.363281 356.886719 51.683594 357.53125 55.339844 C 359.394531 65.953125 373.316406 73.449219 379.851563 78.375 C 387.867188 84.417969 394.34375 88.777344 396.921875 91.824219 C 411.828125 109.441406 393.617188 135.632813 376.835938 135.515625 L 346.664063 135.308594 L 344.125 135.308594 L 344.019531 111.601563 L 346.558594 111.601563 C 346.578125 111.707031 347.492188 121 348.074219 122.929688 C 349.476563 127.574219 353.289063 130.292969 358.359375 131.726563 C 369.671875 134.921875 389.867188 129.183594 389.867188 114.707031 C 389.867188 112.40625 389.398438 108.402344 388.144531 106.058594 C 385.710938 101.511719 376.308594 93.289063 371.578125 90.660156 C 363.570313 86.210938 360.257813 82.175781 356.871094 79.523438 C 353.488281 76.867188 350.902344 73.90625 349.164063 70.710938 C 347.402344 67.488281 346.53125 63.941406 346.53125 60.085938 C 346.53125 53.390625 349.117188 47.609375 354.261719 42.769531 C 359.410156 37.925781 365.988281 35.507813 373.933594 35.507813 C 384.484375 35.507813 390.777344 35.507813 397.972656 35.507813 Z M 397.972656 35.507813 "/>
<g clip-path="url(#clip1)" clip-rule="nonzero">
<path style=" stroke:none;fill-rule:evenodd;fill:rgb(10.594177%,9.812927%,9.423828%);fill-opacity:1;" d="M 437.199219 88.570313 L 437.199219 117.425781 C 437.199219 123.628906 437.832031 127.476563 439.125 128.964844 C 440.863281 131.097656 443.496094 132.164063 447.019531 132.164063 L 450.59375 132.164063 L 450.59375 134.84375 L 410.550781 134.84375 L 410.550781 132.164063 L 414.074219 132.164063 C 418.023438 132.164063 416.90625 130.804688 418.589844 128.097656 C 419.511719 126.613281 419.976563 123.035156 419.976563 117.425781 L 419.976563 53.5625 C 419.976563 47.359375 419.367188 43.503906 418.117188 42.023438 C 416.316406 39.886719 417.617188 38.824219 414.074219 38.824219 L 410.550781 38.824219 L 410.550781 36.144531 L 444.8125 36.144531 C 453.179688 36.144531 463.164063 37.058594 468 38.871094 C 472.816406 40.679688 476.882813 43.761719 480.195313 48.078125 C 483.511719 52.394531 485.15625 57.507813 485.15625 63.410156 C 485.15625 71.476563 482.640625 78.027344 477.613281 83.0625 C 470.527344 90.160156 455.375 91.410156 445.609375 90.109375 C 444.371094 89.957031 443.09375 89.761719 441.777344 89.523438 L 441.777344 85.234375 C 442.433594 85.335938 443.0625 85.421875 443.660156 85.492188 C 450.367188 86.390625 459.203125 85.292969 463.886719 80.011719 C 467.339844 76.117188 469.078125 71.078125 469.078125 64.898438 C 469.078125 60.632813 468.257813 56.664063 466.613281 53.015625 C 462.207031 43.246094 446.996094 41.035156 437.199219 43.488281 L 437.199219 84.402344 L 437.410156 84.445313 L 437.410156 88.621094 Z M 437.199219 88.570313 "/>
</g>
<path style=" stroke:none;fill-rule:evenodd;fill:rgb(10.594177%,9.812927%,9.423828%);fill-opacity:1;" d="M 17.984375 186.914063 L 17.984375 167.644531 L 24.363281 167.644531 C 25.664063 167.644531 26.703125 167.835938 27.492188 168.226563 C 28.273438 168.617188 28.886719 169.21875 29.332031 170.03125 C 29.777344 170.835938 30 171.683594 30 172.574219 C 30 173.394531 29.804688 174.171875 29.410156 174.898438 C 29.019531 175.625 28.425781 176.210938 27.628906 176.660156 C 28.660156 177 29.449219 177.582031 30 178.410156 C 30.554688 179.230469 30.832031 180.203125 30.832031 181.324219 C 30.832031 182.230469 30.660156 183.070313 30.324219 183.84375 C 29.988281 184.621094 29.574219 185.21875 29.078125 185.640625 C 28.582031 186.054688 27.960938 186.375 27.21875 186.589844 C 26.46875 186.804688 25.554688 186.914063 24.472656 186.914063 Z M 20.242188 175.746094 L 23.917969 175.746094 C 24.914063 175.746094 25.632813 175.667969 26.0625 175.519531 C 26.636719 175.328125 27.066406 175.003906 27.355469 174.554688 C 27.644531 174.105469 27.792969 173.546875 27.792969 172.871094 C 27.792969 172.226563 27.65625 171.664063 27.382813 171.179688 C 27.117188 170.6875 26.726563 170.351563 26.226563 170.171875 C 25.722656 169.996094 24.859375 169.90625 23.640625 169.90625 L 20.242188 169.90625 Z M 20.242188 184.652344 L 24.476563 184.652344 C 25.203125 184.652344 25.714844 184.621094 26.011719 184.558594 C 26.527344 184.457031 26.960938 184.28125 27.308594 184.035156 C 27.65625 183.785156 27.941406 183.429688 28.167969 182.957031 C 28.394531 182.484375 28.503906 181.945313 28.503906 181.328125 C 28.503906 180.605469 28.34375 179.984375 28.015625 179.449219 C 27.6875 178.914063 27.238281 178.542969 26.660156 178.328125 C 26.085938 178.113281 25.253906 178.003906 24.175781 178.003906 L 20.242188 178.003906 Z M 20.242188 184.652344 "/>
<path style=" stroke:none;fill-rule:evenodd;fill:rgb(10.594177%,9.812927%,9.423828%);fill-opacity:1;" d="M 32.054688 186.914063 L 38.578125 167.644531 L 41.050781 167.644531 L 47.972656 186.914063 L 45.414063 186.914063 L 43.445313 181.074219 L 36.285156 181.074219 L 34.441406 186.914063 Z M 36.945313 179 L 42.742188 179 L 40.96875 173.660156 C 40.433594 172.035156 40.03125 170.695313 39.75 169.636719 C 39.515625 170.890625 39.203125 172.125 38.8125 173.34375 Z M 36.945313 179 "/>
<path style=" stroke:none;fill-rule:evenodd;fill:rgb(10.594177%,9.812927%,9.423828%);fill-opacity:1;" d="M 49.757813 186.914063 L 49.757813 167.644531 L 55.617188 167.644531 C 56.9375 167.644531 57.949219 167.734375 58.644531 167.917969 C 59.617188 168.171875 60.449219 168.636719 61.136719 169.300781 C 62.035156 170.160156 62.707031 171.253906 63.148438 172.589844 C 63.59375 173.929688 63.816406 175.457031 63.816406 177.175781 C 63.816406 178.636719 63.667969 179.933594 63.367188 181.0625 C 63.066406 182.195313 62.675781 183.132813 62.207031 183.871094 C 61.730469 184.613281 61.21875 185.195313 60.65625 185.617188 C 60.097656 186.042969 59.421875 186.367188 58.628906 186.585938 C 57.832031 186.804688 56.921875 186.914063 55.894531 186.914063 Z M 52.015625 184.652344 L 55.640625 184.652344 C 56.761719 184.652344 57.640625 184.535156 58.277344 184.296875 C 58.914063 184.058594 59.421875 183.726563 59.800781 183.296875 C 60.332031 182.691406 60.746094 181.875 61.042969 180.851563 C 61.339844 179.832031 61.488281 178.59375 61.488281 177.136719 C 61.488281 175.117188 61.195313 173.566406 60.617188 172.480469 C 60.035156 171.394531 59.324219 170.667969 58.488281 170.300781 C 57.886719 170.035156 56.917969 169.90625 55.582031 169.90625 L 52.015625 169.90625 Z M 52.015625 184.652344 "/>
<path style=" stroke:none;fill-rule:evenodd;fill:rgb(10.594177%,9.812927%,9.423828%);fill-opacity:1;" d="M 65.042969 186.914063 L 71.566406 167.644531 L 74.039063 167.644531 L 80.964844 186.914063 L 78.402344 186.914063 L 76.433594 181.074219 L 69.277344 181.074219 L 67.429688 186.914063 Z M 69.9375 179 L 75.730469 179 L 73.957031 173.660156 C 73.421875 172.035156 73.019531 170.695313 72.738281 169.636719 C 72.503906 170.890625 72.191406 172.125 71.800781 173.34375 Z M 69.9375 179 "/>
<path style=" stroke:none;fill-rule:evenodd;fill:rgb(10.594177%,9.812927%,9.423828%);fill-opacity:1;" d="M 82.726563 186.914063 L 82.726563 167.644531 L 85.035156 167.644531 L 93.957031 182.769531 L 93.957031 167.644531 L 96.117188 167.644531 L 96.117188 186.914063 L 93.808594 186.914063 L 84.886719 171.789063 L 84.886719 186.914063 Z M 82.726563 186.914063 "/>
<path style=" stroke:none;fill-rule:evenodd;fill:rgb(10.594177%,9.812927%,9.423828%);fill-opacity:1;" d="M 106.472656 186.914063 L 106.472656 167.644531 L 108.785156 167.644531 L 117.707031 182.769531 L 117.707031 167.644531 L 119.867188 167.644531 L 119.867188 186.914063 L 117.554688 186.914063 L 108.632813 171.789063 L 108.632813 186.914063 Z M 106.472656 186.914063 "/>
<path style=" stroke:none;fill-rule:evenodd;fill:rgb(10.594177%,9.812927%,9.423828%);fill-opacity:1;" d="M 121.78125 186.914063 L 128.304688 167.644531 L 130.777344 167.644531 L 137.699219 186.914063 L 135.140625 186.914063 L 133.171875 181.074219 L 126.011719 181.074219 L 124.167969 186.914063 Z M 126.671875 179 L 132.46875 179 L 130.695313 173.660156 C 130.160156 172.035156 129.757813 170.695313 129.476563 169.636719 C 129.242188 170.890625 128.929688 172.125 128.539063 173.34375 Z M 126.671875 179 "/>
<g clip-path="url(#clip2)" clip-rule="nonzero">
<path style=" stroke:none;fill-rule:evenodd;fill:rgb(10.594177%,9.812927%,9.423828%);fill-opacity:1;" d="M 138.75 180.722656 L 140.863281 180.507813 C 140.960938 181.476563 141.195313 182.269531 141.5625 182.894531 C 141.929688 183.511719 142.5 184.015625 143.273438 184.402344 C 144.046875 184.78125 144.914063 184.976563 145.882813 184.976563 C 146.742188 184.976563 147.496094 184.832031 148.152344 184.539063 C 148.8125 184.25 149.296875 183.851563 149.617188 183.34375 C 149.9375 182.835938 150.101563 182.285156 150.101563 181.691406 C 150.101563 181.089844 149.945313 180.566406 149.636719 180.113281 C 149.328125 179.664063 148.820313 179.289063 148.105469 178.976563 C 147.652344 178.78125 146.640625 178.46875 145.078125 178.039063 C 143.515625 177.613281 142.421875 177.214844 141.796875 176.839844 C 140.984375 176.355469 140.382813 175.753906 139.988281 175.039063 C 139.589844 174.328125 139.390625 173.523438 139.390625 172.640625 C 139.390625 171.664063 139.636719 170.753906 140.125 169.910156 C 140.609375 169.0625 141.320313 168.417969 142.257813 167.980469 C 143.191406 167.539063 144.230469 167.320313 145.375 167.320313 C 146.632813 167.320313 147.746094 167.550781 148.707031 168.011719 C 149.667969 168.46875 150.410156 169.144531 150.929688 170.042969 C 151.445313 170.9375 151.722656 171.949219 151.761719 173.078125 L 149.601563 173.269531 C 149.488281 172.054688 149.09375 171.132813 148.425781 170.515625 C 147.757813 169.890625 146.769531 169.582031 145.460938 169.582031 C 144.101563 169.582031 143.105469 169.863281 142.484375 170.429688 C 141.863281 170.996094 141.550781 171.675781 141.550781 172.472656 C 141.550781 173.164063 141.773438 173.734375 142.210938 174.183594 C 142.648438 174.628906 143.777344 175.089844 145.605469 175.554688 C 147.433594 176.027344 148.6875 176.433594 149.367188 176.785156 C 150.355469 177.300781 151.085938 177.953125 151.558594 178.746094 C 152.027344 179.535156 152.261719 180.445313 152.261719 181.476563 C 152.261719 182.503906 152.003906 183.464844 151.488281 184.371094 C 150.96875 185.277344 150.226563 185.980469 149.257813 186.484375 C 148.289063 186.984375 147.199219 187.234375 145.984375 187.234375 C 144.449219 187.234375 143.164063 186.980469 142.125 186.472656 C 141.085938 185.964844 140.273438 185.203125 139.683594 184.179688 C 139.089844 183.164063 138.78125 182.011719 138.75 180.722656 Z M 138.75 180.722656 "/>
</g>
<path style=" stroke:none;fill-rule:evenodd;fill:rgb(10.594177%,9.812927%,9.423828%);fill-opacity:1;" d="M 155.707031 186.914063 L 157.960938 186.914063 L 157.960938 167.644531 L 155.707031 167.644531 Z M 155.707031 186.914063 "/>
<g clip-path="url(#clip3)" clip-rule="nonzero">
<path style=" stroke:none;fill-rule:evenodd;fill:rgb(10.594177%,9.812927%,9.423828%);fill-opacity:1;" d="M 161.234375 177.535156 C 161.234375 174.339844 161.996094 171.835938 163.511719 170.03125 C 165.027344 168.222656 166.980469 167.320313 169.378906 167.320313 C 170.953125 167.320313 172.363281 167.746094 173.628906 168.59375 C 174.886719 169.441406 175.847656 170.625 176.507813 172.148438 C 177.167969 173.664063 177.5 175.386719 177.5 177.308594 C 177.5 179.261719 177.152344 181.011719 176.457031 182.550781 C 175.761719 184.089844 174.773438 185.257813 173.5 186.046875 C 172.222656 186.839844 170.84375 187.234375 169.367188 187.234375 C 167.765625 187.234375 166.335938 186.796875 165.074219 185.921875 C 163.816406 185.046875 162.859375 183.855469 162.207031 182.339844 C 161.558594 180.828125 161.234375 179.226563 161.234375 177.535156 Z M 163.5625 177.578125 C 163.5625 179.898438 164.113281 181.722656 165.210938 183.054688 C 166.3125 184.386719 167.695313 185.054688 169.355469 185.054688 C 171.050781 185.054688 172.441406 184.382813 173.535156 183.039063 C 174.628906 181.691406 175.175781 179.78125 175.175781 177.304688 C 175.175781 175.738281 174.941406 174.371094 174.472656 173.207031 C 174.007813 172.039063 173.320313 171.132813 172.425781 170.492188 C 171.519531 169.851563 170.511719 169.527344 169.390625 169.527344 C 167.800781 169.527344 166.429688 170.148438 165.285156 171.382813 C 164.136719 172.621094 163.5625 174.6875 163.5625 177.578125 Z M 163.5625 177.578125 "/>
</g>
<path style=" stroke:none;fill-rule:evenodd;fill:rgb(10.594177%,9.812927%,9.423828%);fill-opacity:1;" d="M 180.371094 186.914063 L 180.371094 167.644531 L 182.683594 167.644531 L 191.605469 182.769531 L 191.605469 167.644531 L 193.765625 167.644531 L 193.765625 186.914063 L 191.453125 186.914063 L 182.53125 171.789063 L 182.53125 186.914063 Z M 180.371094 186.914063 "/>
<path style=" stroke:none;fill-rule:evenodd;fill:rgb(10.594177%,9.812927%,9.423828%);fill-opacity:1;" d="M 195.679688 186.914063 L 202.203125 167.644531 L 204.675781 167.644531 L 211.597656 186.914063 L 209.039063 186.914063 L 207.070313 181.074219 L 199.910156 181.074219 L 198.066406 186.914063 Z M 200.574219 179 L 206.367188 179 L 204.59375 173.660156 C 204.058594 172.035156 203.65625 170.695313 203.375 169.636719 C 203.140625 170.890625 202.828125 172.125 202.4375 173.34375 Z M 200.574219 179 "/>
<path style=" stroke:none;fill-rule:evenodd;fill:rgb(10.594177%,9.812927%,9.423828%);fill-opacity:1;" d="M 213.289063 186.914063 L 213.289063 167.644531 L 215.546875 167.644531 L 215.546875 184.652344 L 223.90625 184.652344 L 223.90625 186.914063 Z M 213.289063 186.914063 "/>
<g clip-path="url(#clip4)" clip-rule="nonzero">
<path style=" stroke:none;fill-rule:evenodd;fill:rgb(10.594177%,9.812927%,9.423828%);fill-opacity:1;" d="M 231.570313 180.722656 L 233.683594 180.507813 C 233.785156 181.476563 234.015625 182.269531 234.386719 182.894531 C 234.753906 183.511719 235.324219 184.015625 236.09375 184.402344 C 236.867188 184.78125 237.738281 184.976563 238.703125 184.976563 C 239.5625 184.976563 240.316406 184.832031 240.976563 184.539063 C 241.632813 184.25 242.121094 183.851563 242.441406 183.34375 C 242.761719 182.835938 242.921875 182.285156 242.921875 181.691406 C 242.921875 181.089844 242.769531 180.566406 242.460938 180.113281 C 242.152344 179.664063 241.640625 179.289063 240.929688 178.976563 C 240.472656 178.78125 239.464844 178.46875 237.898438 178.039063 C 236.335938 177.613281 235.246094 177.214844 234.617188 176.839844 C 233.808594 176.355469 233.207031 175.753906 232.808594 175.039063 C 232.410156 174.328125 232.210938 173.523438 232.210938 172.640625 C 232.210938 171.664063 232.457031 170.753906 232.945313 169.910156 C 233.429688 169.0625 234.140625 168.417969 235.078125 167.980469 C 236.011719 167.539063 237.054688 167.320313 238.195313 167.320313 C 239.457031 167.320313 240.566406 167.550781 241.53125 168.011719 C 242.492188 168.46875 243.230469 169.144531 243.75 170.042969 C 244.269531 170.9375 244.546875 171.949219 244.585938 173.078125 L 242.421875 173.269531 C 242.308594 172.054688 241.917969 171.132813 241.25 170.515625 C 240.578125 169.890625 239.589844 169.582031 238.285156 169.582031 C 236.921875 169.582031 235.929688 169.863281 235.308594 170.429688 C 234.6875 170.996094 234.375 171.675781 234.375 172.472656 C 234.375 173.164063 234.59375 173.734375 235.035156 174.183594 C 235.46875 174.628906 236.597656 175.089844 238.425781 175.554688 C 240.253906 176.027344 241.507813 176.433594 242.191406 176.785156 C 243.175781 177.300781 243.90625 177.953125 244.378906 178.746094 C 244.851563 179.535156 245.082031 180.445313 245.082031 181.476563 C 245.082031 182.503906 244.828125 183.464844 244.308594 184.371094 C 243.789063 185.277344 243.050781 185.980469 242.078125 186.484375 C 241.109375 186.984375 240.019531 187.234375 238.804688 187.234375 C 237.269531 187.234375 235.984375 186.980469 234.949219 186.472656 C 233.90625 185.964844 233.09375 185.203125 232.503906 184.179688 C 231.910156 183.164063 231.601563 182.011719 231.570313 180.722656 Z M 231.570313 180.722656 "/>
</g>
<path style=" stroke:none;fill-rule:evenodd;fill:rgb(10.594177%,9.812927%,9.423828%);fill-opacity:1;" d="M 248.195313 186.914063 L 248.195313 167.644531 L 260.472656 167.644531 L 260.472656 169.90625 L 250.449219 169.90625 L 250.449219 175.824219 L 259.832031 175.824219 L 259.832031 178.085938 L 250.449219 178.085938 L 250.449219 184.652344 L 260.875 184.652344 L 260.875 186.914063 Z M 248.195313 186.914063 "/>
<path style=" stroke:none;fill-rule:evenodd;fill:rgb(10.594177%,9.812927%,9.423828%);fill-opacity:1;" d="M 264.035156 186.914063 L 264.035156 167.644531 L 271.570313 167.644531 C 273.085938 167.644531 274.238281 167.820313 275.027344 168.164063 C 275.8125 168.507813 276.441406 169.121094 276.914063 169.996094 C 277.382813 170.867188 277.617188 171.835938 277.617188 172.894531 C 277.617188 174.265625 277.226563 175.417969 276.445313 176.355469 C 275.667969 177.292969 274.464844 177.882813 272.832031 178.140625 C 273.429688 178.460938 273.882813 178.785156 274.191406 179.097656 C 274.847656 179.78125 275.46875 180.636719 276.050781 181.664063 L 278.992188 186.914063 L 276.179688 186.914063 L 273.933594 182.902344 C 273.28125 181.742188 272.738281 180.859375 272.3125 180.242188 C 271.886719 179.628906 271.507813 179.203125 271.171875 178.957031 C 270.839844 178.714844 270.492188 178.542969 270.144531 178.445313 C 269.890625 178.386719 269.476563 178.355469 268.894531 178.355469 L 266.289063 178.355469 L 266.289063 186.914063 Z M 266.289063 176.148438 L 271.117188 176.148438 C 272.148438 176.148438 272.949219 176.027344 273.527344 175.785156 C 274.101563 175.546875 274.542969 175.160156 274.839844 174.628906 C 275.140625 174.097656 275.289063 173.523438 275.289063 172.902344 C 275.289063 171.988281 275 171.238281 274.417969 170.648438 C 273.839844 170.0625 272.921875 169.769531 271.664063 169.769531 L 266.289063 169.769531 Z M 266.289063 176.148438 "/>
<path style=" stroke:none;fill-rule:evenodd;fill:rgb(10.594177%,9.812927%,9.423828%);fill-opacity:1;" d="M 285.03125 186.914063 L 285.03125 169.90625 L 279.425781 169.90625 L 279.425781 167.644531 L 292.890625 167.644531 L 292.890625 169.90625 L 287.289063 169.90625 L 287.289063 186.914063 Z M 285.03125 186.914063 "/>
<path style=" stroke:none;fill-rule:evenodd;fill:rgb(10.594177%,9.812927%,9.423828%);fill-opacity:1;" d="M 295.59375 186.914063 L 297.851563 186.914063 L 297.851563 167.644531 L 295.59375 167.644531 Z M 295.59375 186.914063 "/>
<path style=" stroke:none;fill-rule:evenodd;fill:rgb(10.594177%,9.812927%,9.423828%);fill-opacity:1;" d="M 301.933594 186.914063 L 301.933594 167.644531 L 313.402344 167.644531 L 313.402344 169.90625 L 304.1875 169.90625 L 304.1875 175.90625 L 312.167969 175.90625 L 312.167969 178.167969 L 304.1875 178.167969 L 304.1875 186.914063 Z M 301.933594 186.914063 "/>
<path style=" stroke:none;fill-rule:evenodd;fill:rgb(10.594177%,9.812927%,9.423828%);fill-opacity:1;" d="M 316.699219 186.914063 L 318.953125 186.914063 L 318.953125 167.644531 L 316.699219 167.644531 Z M 316.699219 186.914063 "/>
<path style=" stroke:none;fill-rule:evenodd;fill:rgb(10.594177%,9.812927%,9.423828%);fill-opacity:1;" d="M 322.820313 186.914063 L 322.820313 167.644531 L 325.078125 167.644531 L 325.078125 177.199219 L 333.523438 167.644531 L 336.570313 167.644531 L 329.441406 175.457031 L 336.878906 186.914063 L 333.910156 186.914063 L 327.859375 177.1875 L 325.078125 180.238281 L 325.078125 186.914063 Z M 322.820313 186.914063 "/>
<path style=" stroke:none;fill-rule:evenodd;fill:rgb(10.594177%,9.812927%,9.423828%);fill-opacity:1;" d="M 336.894531 186.914063 L 343.414063 167.644531 L 345.886719 167.644531 L 352.8125 186.914063 L 350.25 186.914063 L 348.285156 181.074219 L 341.125 181.074219 L 339.277344 186.914063 Z M 341.785156 179 L 347.578125 179 L 345.804688 173.660156 C 345.273438 172.035156 344.867188 170.695313 344.585938 169.636719 C 344.351563 170.890625 344.039063 172.125 343.648438 173.34375 Z M 341.785156 179 "/>
<g clip-path="url(#clip5)" clip-rule="nonzero">
<path style=" stroke:none;fill-rule:evenodd;fill:rgb(10.594177%,9.812927%,9.423828%);fill-opacity:1;" d="M 353.859375 180.722656 L 355.972656 180.507813 C 356.074219 181.476563 356.304688 182.269531 356.675781 182.894531 C 357.042969 183.511719 357.613281 184.015625 358.382813 184.402344 C 359.15625 184.78125 360.027344 184.976563 360.992188 184.976563 C 361.851563 184.976563 362.605469 184.832031 363.265625 184.539063 C 363.921875 184.25 364.40625 183.851563 364.730469 183.34375 C 365.050781 182.835938 365.210938 182.285156 365.210938 181.691406 C 365.210938 181.089844 365.058594 180.566406 364.75 180.113281 C 364.441406 179.664063 363.929688 179.289063 363.21875 178.976563 C 362.761719 178.78125 361.753906 178.46875 360.1875 178.039063 C 358.625 177.613281 357.53125 177.214844 356.90625 176.839844 C 356.097656 176.355469 355.496094 175.753906 355.097656 175.039063 C 354.699219 174.328125 354.5 173.523438 354.5 172.640625 C 354.5 171.664063 354.746094 170.753906 355.234375 169.910156 C 355.71875 169.0625 356.429688 168.417969 357.367188 167.980469 C 358.300781 167.539063 359.34375 167.320313 360.484375 167.320313 C 361.746094 167.320313 362.855469 167.550781 363.816406 168.011719 C 364.78125 168.46875 365.519531 169.144531 366.039063 170.042969 C 366.558594 170.9375 366.835938 171.949219 366.875 173.078125 L 364.710938 173.269531 C 364.597656 172.054688 364.207031 171.132813 363.539063 170.515625 C 362.867188 169.890625 361.878906 169.582031 360.574219 169.582031 C 359.210938 169.582031 358.21875 169.863281 357.597656 170.429688 C 356.976563 170.996094 356.664063 171.675781 356.664063 172.472656 C 356.664063 173.164063 356.882813 173.734375 357.324219 174.183594 C 357.757813 174.628906 358.886719 175.089844 360.714844 175.554688 C 362.542969 176.027344 363.796875 176.433594 364.480469 176.785156 C 365.464844 177.300781 366.195313 177.953125 366.667969 178.746094 C 367.140625 179.535156 367.371094 180.445313 367.371094 181.476563 C 367.371094 182.503906 367.117188 183.464844 366.597656 184.371094 C 366.078125 185.277344 365.339844 185.980469 364.367188 186.484375 C 363.398438 186.984375 362.308594 187.234375 361.09375 187.234375 C 359.558594 187.234375 358.273438 186.980469 357.234375 186.472656 C 356.195313 185.964844 355.382813 185.203125 354.792969 184.179688 C 354.199219 183.164063 353.890625 182.011719 353.859375 180.722656 Z M 353.859375 180.722656 "/>
</g>
<path style=" stroke:none;fill-rule:evenodd;fill:rgb(10.594177%,9.812927%,9.423828%);fill-opacity:1;" d="M 370.816406 186.914063 L 373.074219 186.914063 L 373.074219 167.644531 L 370.816406 167.644531 Z M 370.816406 186.914063 "/>
<path style=" stroke:none;fill-rule:evenodd;fill:rgb(10.594177%,9.812927%,9.423828%);fill-opacity:1;" d="M 383.632813 186.914063 L 383.632813 167.644531 L 390.050781 167.644531 C 391.179688 167.644531 392.042969 167.707031 392.640625 167.828125 C 393.476563 167.984375 394.175781 168.285156 394.742188 168.726563 C 395.308594 169.167969 395.761719 169.789063 396.109375 170.582031 C 396.453125 171.375 396.621094 172.25 396.621094 173.207031 C 396.621094 174.839844 396.164063 176.222656 395.242188 177.355469 C 394.324219 178.488281 392.65625 179.054688 390.25 179.054688 L 385.886719 179.054688 L 385.886719 186.914063 Z M 385.886719 176.792969 L 390.28125 176.792969 C 391.738281 176.792969 392.765625 176.488281 393.378906 175.875 C 393.992188 175.261719 394.292969 174.398438 394.292969 173.28125 C 394.292969 172.480469 394.117188 171.789063 393.757813 171.214844 C 393.394531 170.640625 392.921875 170.257813 392.335938 170.074219 C 391.957031 169.960938 391.253906 169.90625 390.238281 169.90625 L 385.886719 169.90625 Z M 385.886719 176.792969 "/>
<path style=" stroke:none;fill-rule:evenodd;fill:rgb(10.594177%,9.812927%,9.423828%);fill-opacity:1;" d="M 399.519531 186.914063 L 399.519531 167.644531 L 407.054688 167.644531 C 408.570313 167.644531 409.722656 167.820313 410.511719 168.164063 C 411.296875 168.507813 411.925781 169.121094 412.398438 169.996094 C 412.871094 170.867188 413.101563 171.835938 413.101563 172.894531 C 413.101563 174.265625 412.710938 175.417969 411.929688 176.355469 C 411.152344 177.292969 409.949219 177.882813 408.316406 178.140625 C 408.914063 178.460938 409.367188 178.785156 409.675781 179.097656 C 410.332031 179.78125 410.953125 180.636719 411.535156 181.664063 L 414.476563 186.914063 L 411.667969 186.914063 L 409.417969 182.902344 C 408.765625 181.742188 408.222656 180.859375 407.800781 180.242188 C 407.371094 179.628906 406.992188 179.203125 406.65625 178.957031 C 406.324219 178.714844 405.980469 178.542969 405.628906 178.445313 C 405.378906 178.386719 404.960938 178.355469 404.378906 178.355469 L 401.777344 178.355469 L 401.777344 186.914063 Z M 401.777344 176.148438 L 406.605469 176.148438 C 407.632813 176.148438 408.433594 176.027344 409.011719 175.785156 C 409.589844 175.546875 410.027344 175.160156 410.324219 174.628906 C 410.625 174.097656 410.777344 173.523438 410.777344 172.902344 C 410.777344 171.988281 410.488281 171.238281 409.90625 170.648438 C 409.324219 170.0625 408.40625 169.769531 407.148438 169.769531 L 401.777344 169.769531 Z M 401.777344 176.148438 "/>
<g clip-path="url(#clip6)" clip-rule="nonzero">
<path style=" stroke:none;fill-rule:evenodd;fill:rgb(10.594177%,9.812927%,9.423828%);fill-opacity:1;" d="M 415.933594 177.535156 C 415.933594 174.339844 416.691406 171.835938 418.207031 170.03125 C 419.726563 168.222656 421.679688 167.320313 424.078125 167.320313 C 425.648438 167.320313 427.0625 167.746094 428.324219 168.59375 C 429.582031 169.441406 430.546875 170.625 431.207031 172.148438 C 431.867188 173.664063 432.199219 175.386719 432.199219 177.308594 C 432.199219 179.261719 431.851563 181.011719 431.15625 182.550781 C 430.457031 184.089844 429.472656 185.257813 428.199219 186.046875 C 426.921875 186.839844 425.542969 187.234375 424.066406 187.234375 C 422.464844 187.234375 421.035156 186.796875 419.773438 185.921875 C 418.515625 185.046875 417.554688 183.855469 416.90625 182.339844 C 416.257813 180.828125 415.933594 179.226563 415.933594 177.535156 Z M 418.261719 177.578125 C 418.261719 179.898438 418.808594 181.722656 419.910156 183.054688 C 421.011719 184.386719 422.390625 185.054688 424.054688 185.054688 C 425.75 185.054688 427.136719 184.382813 428.234375 183.039063 C 429.328125 181.691406 429.871094 179.78125 429.871094 177.304688 C 429.871094 175.738281 429.640625 174.371094 429.171875 173.207031 C 428.707031 172.039063 428.019531 171.132813 427.121094 170.492188 C 426.21875 169.851563 425.210938 169.527344 424.089844 169.527344 C 422.5 169.527344 421.128906 170.148438 419.980469 171.382813 C 418.835938 172.621094 418.261719 174.6875 418.261719 177.578125 Z M 418.261719 177.578125 "/>
</g>
<path style=" stroke:none;fill-rule:evenodd;fill:rgb(10.594177%,9.812927%,9.423828%);fill-opacity:1;" d="M 435.210938 186.914063 L 435.210938 167.644531 L 446.683594 167.644531 L 446.683594 169.90625 L 437.46875 169.90625 L 437.46875 175.90625 L 445.449219 175.90625 L 445.449219 178.167969 L 437.46875 178.167969 L 437.46875 186.914063 Z M 435.210938 186.914063 "/>
<path style=" stroke:none;fill-rule:evenodd;fill:rgb(10.594177%,9.812927%,9.423828%);fill-opacity:1;" d="M 449.648438 186.914063 L 449.648438 167.644531 L 461.925781 167.644531 L 461.925781 169.90625 L 451.902344 169.90625 L 451.902344 175.824219 L 461.28125 175.824219 L 461.28125 178.085938 L 451.902344 178.085938 L 451.902344 184.652344 L 462.328125 184.652344 L 462.328125 186.914063 Z M 449.648438 186.914063 "/>
<g clip-path="url(#clip7)" clip-rule="nonzero">
<path style=" stroke:none;fill-rule:evenodd;fill:rgb(10.594177%,9.812927%,9.423828%);fill-opacity:1;" d="M 464.703125 180.722656 L 466.816406 180.507813 C 466.914063 181.476563 467.148438 182.269531 467.515625 182.894531 C 467.882813 183.511719 468.453125 184.015625 469.226563 184.402344 C 470 184.78125 470.867188 184.976563 471.835938 184.976563 C 472.695313 184.976563 473.449219 184.832031 474.105469 184.539063 C 474.765625 184.25 475.25 183.851563 475.570313 183.34375 C 475.890625 182.835938 476.054688 182.285156 476.054688 181.691406 C 476.054688 181.089844 475.898438 180.566406 475.589844 180.113281 C 475.28125 179.664063 474.773438 179.289063 474.058594 178.976563 C 473.605469 178.78125 472.59375 178.46875 471.03125 178.039063 C 469.46875 177.613281 468.375 177.214844 467.75 176.839844 C 466.9375 176.355469 466.335938 175.753906 465.941406 175.039063 C 465.542969 174.328125 465.34375 173.523438 465.34375 172.640625 C 465.34375 171.664063 465.589844 170.753906 466.078125 169.910156 C 466.5625 169.0625 467.273438 168.417969 468.210938 167.980469 C 469.144531 167.539063 470.183594 167.320313 471.328125 167.320313 C 472.585938 167.320313 473.699219 167.550781 474.660156 168.011719 C 475.621094 168.46875 476.363281 169.144531 476.882813 170.042969 C 477.398438 170.9375 477.675781 171.949219 477.714844 173.078125 L 475.554688 173.269531 C 475.441406 172.054688 475.046875 171.132813 474.378906 170.515625 C 473.710938 169.890625 472.722656 169.582031 471.414063 169.582031 C 470.054688 169.582031 469.058594 169.863281 468.4375 170.429688 C 467.816406 170.996094 467.503906 171.675781 467.503906 172.472656 C 467.503906 173.164063 467.726563 173.734375 468.164063 174.183594 C 468.601563 174.628906 469.730469 175.089844 471.558594 175.554688 C 473.386719 176.027344 474.640625 176.433594 475.320313 176.785156 C 476.308594 177.300781 477.039063 177.953125 477.511719 178.746094 C 477.980469 179.535156 478.214844 180.445313 478.214844 181.476563 C 478.214844 182.503906 477.957031 183.464844 477.4375 184.371094 C 476.921875 185.277344 476.179688 185.980469 475.210938 186.484375 C 474.242188 186.984375 473.152344 187.234375 471.9375 187.234375 C 470.402344 187.234375 469.117188 186.980469 468.078125 186.472656 C 467.039063 185.964844 466.226563 185.203125 465.636719 184.179688 C 465.042969 183.164063 464.734375 182.011719 464.703125 180.722656 Z M 464.703125 180.722656 "/>
</g>
<path style=" stroke:none;fill-rule:evenodd;fill:rgb(10.594177%,9.812927%,9.423828%);fill-opacity:1;" d="M 481.660156 186.914063 L 483.914063 186.914063 L 483.914063 167.644531 L 481.660156 167.644531 Z M 481.660156 186.914063 "/>
</g>
</svg>